<svg
  xmlns="http://www.w3.org/2000/svg"
  viewBox="0 0 800 200"
  width="800"
  height="200"
  role="img"
  aria-labelledby="title desc"
>
  <title id="title">bingeBrain logo</title>
  <desc id="desc">
    A stylized brain made of rounded lobes with a play triangle at center,
    next to the word bingeBrain.
  </desc>

  <defs>
    <linearGradient id="g1" x1="0" x2="1" y1="0" y2="1">
      <stop offset="0" stop-color="#7C4DFF" />
      <stop offset="1" stop-color="#00C2FF" />
    </linearGradient>
    <linearGradient id="g2" x1="0" x2="1">
      <stop offset="0" stop-color="#3B1FFF" stop-opacity="0.12" />
      <stop offset="1" stop-color="#00A6D6" stop-opacity="0.08" />
    </linearGradient>
    <filter id="s" x="-20%" y="-20%" width="140%" height="140%">
      <feDropShadow
        dx="0"
        dy="6"
        stdDeviation="10"
        flood-color="#000"
        flood-opacity="0.12"
      />
    </filter>
  </defs>

  <g transform="translate(36,24)" filter="url(#s)">
    <g transform="translate(0,0) scale(1)">
      <circle cx="84" cy="52" r="34" fill="url(#g1)" />
      <circle cx="124" cy="40" r="28" fill="url(#g1)" />
      <circle cx="52" cy="44" r="28" fill="url(#g1)" />
      <circle cx="104" cy="76" r="30" fill="url(#g1)" />
      <circle cx="64" cy="80" r="26" fill="url(#g1)" />
      <ellipse cx="92" cy="58" rx="88" ry="52" fill="url(#g2)" />
      <path
        d="M28 56
           c-2-10 2-22 16-30
           c18-10 40-6 52 4
           c12-10 34-14 54-2
           c18 10 26 28 20 46
           c-6 18-24 34-50 34
           c-14 0-28-6-38-14
           c-10 8-22 12-34 8
           c-18-6-30-22-32-44 z"
        fill="none"
        stroke="rgba(0,0,0,0.08)"
        stroke-width="2"
        stroke-linecap="round"
        stroke-linejoin="round"
      />
    </g>

    <g transform="translate(64,52)">
      <polygon
        points="0,-14 24,0 0,14"
        fill="#fff"
        opacity="0.95"
        stroke="rgba(0,0,0,0.06)"
        stroke-width="1"
      />
      <circle
        cx="8"
        cy="0"
        r="22"
        fill="none"
        stroke="rgba(255,255,255,0.08)"
        stroke-width="6"
      />
    </g>
  </g>

  <g transform="translate(220,118)">
    <text
      x="0"
      y="0"
      font-family="Inter, system-ui, -apple-system, 'Segoe UI', Roboto, 'Helvetica Neue', Arial"
      font-weight="700"
      font-size="56"
      fill="#e4e5e7"
      style="letter-spacing:-1px"
    >
      binge
    </text>
    <text
      x="150"
      y="0"
      font-family="Inter, system-ui, -apple-system, 'Segoe UI', Roboto, 'Helvetica Neue', Arial"
      font-weight="700"
      font-size="56"
      fill="url(#g1)"
      style="letter-spacing:-1px"
    >
      Brain
    </text>
    <text
      x="0"
      y="36"
      font-family="Inter, system-ui, sans-serif"
      font-weight="500"
      font-size="14"
      fill="#6B7280"
    >
      learn faster • watch smarter
    </text>
  </g>
</svg>